<?xml version="1.0" encoding="UTF-8" standalone="no"?>
<!-- Created with Inkscape (http://www.inkscape.org/) -->

<svg
   width="210mm"
   height="297mm"
   viewBox="0 0 210 297"
   version="1.1"
   id="svg1"
   inkscape:version="1.4.2 (ebf0e940, 2025-05-08)"
   sodipodi:docname="logo bicolore 2.svg"
   xmlns:inkscape="http://www.inkscape.org/namespaces/inkscape"
   xmlns:sodipodi="http://sodipodi.sourceforge.net/DTD/sodipodi-0.dtd"
   xmlns="http://www.w3.org/2000/svg"
   xmlns:svg="http://www.w3.org/2000/svg">
  <sodipodi:namedview
     id="namedview1"
     pagecolor="#ffffff"
     bordercolor="#000000"
     borderopacity="0.25"
     inkscape:showpageshadow="2"
     inkscape:pageopacity="0.0"
     inkscape:pagecheckerboard="0"
     inkscape:deskcolor="#d1d1d1"
     inkscape:document-units="mm"
     inkscape:zoom="0.39327185"
     inkscape:cx="317.84629"
     inkscape:cy="225.03517"
     inkscape:window-width="920"
     inkscape:window-height="696"
     inkscape:window-x="0"
     inkscape:window-y="37"
     inkscape:window-maximized="0"
     inkscape:current-layer="layer1" />
  <defs
     id="defs1" />
  <g
     inkscape:label="Calque 1"
     inkscape:groupmode="layer"
     id="layer1">
    <g
       id="g145"
       transform="matrix(1.660813,0,0,1.660813,-57.511511,84.307093)">
      <g
         inkscape:label="Calque 1"
         id="g144"
         transform="matrix(1.0607343,0,0,1.0607343,45.849565,-3.4789633)">
        <path
           id="path138"
           style="font-style:normal;font-variant:normal;font-weight:bold;font-stretch:normal;font-size:14.1111px;line-height:1.25;font-family:'Glacial Indifference';-inkscape-font-specification:'Glacial Indifference Bold';letter-spacing:0.529167px;white-space:pre;fill:#6bba94;fill-opacity:1;stroke-width:1.03565"
           d="m 44.494235,24.384324 c -2.537811,-0.05496 -4.888196,1.902464 -5.217711,4.457062 -0.141037,1.093466 0.108659,2.171767 0.628545,3.097599 l -1.388089,1.735934 a 7.7748172,7.7748044 0 0 1 1.149218,0.638453 l 1.034738,-1.293418 c 0.298876,0.313442 0.63666,0.589576 1.003914,0.821182 l -1.025929,1.282412 a 7.7748172,7.7748044 0 0 1 0.871817,0.978593 l 1.366075,-1.707311 c 0.252723,0.07669 0.510807,0.13944 0.778253,0.173927 2.724899,0.35146 5.375897,-1.694735 5.727375,-4.419638 0.351462,-2.72491 -1.693655,-5.375923 -4.418541,-5.727366 -0.170305,-0.02196 -0.340476,-0.03376 -0.509665,-0.03743 z m -0.05613,2.191654 c 0.09505,0.0015 0.189988,0.0087 0.285103,0.02088 1.521891,0.196314 2.720007,1.764557 0.224562,3.689822 -2.495503,1.92526 -3.694613,0.370664 -3.498295,-1.151421 h -0.0011 c 0.184045,-1.426754 1.564004,-2.582147 2.98973,-2.559316 z m -15.326211,18.855286 -1.366073,1.708413 c -0.252273,-0.07647 -0.510223,-0.138396 -0.77715,-0.172819 -2.724948,-0.351488 -5.37589,1.693629 -5.727375,4.418535 -0.351444,2.724894 1.693598,5.375905 4.418542,5.727366 2.724899,0.351467 5.375897,-1.694729 5.727375,-4.419634 0.141122,-1.094066 -0.10917,-2.172536 -0.62965,-3.0987 l 1.388088,-1.734839 A 7.7748172,7.7748044 0 0 1 30.999738,47.223338 L 29.965,48.516754 c -0.298712,-0.313625 -0.636794,-0.589351 -1.003918,-0.821181 l 1.025927,-1.282411 A 7.7748172,7.7748044 0 0 1 29.11189,45.431264 Z m -2.709028,3.688718 c 0.09505,0.0017 0.189988,0.0085 0.285103,0.02088 1.521894,0.196314 2.720007,1.764552 0.224562,3.689821 -2.495501,1.925263 -3.69462,0.370668 -3.498295,-1.151418 h -0.0011 c 0.184045,-1.426755 1.564004,-2.582146 2.98973,-2.559319 z" />
        <path
           style="font-style:normal;font-variant:normal;font-weight:bold;font-stretch:normal;font-size:14.1111px;line-height:1.25;font-family:'Glacial Indifference';-inkscape-font-specification:'Glacial Indifference Bold';letter-spacing:0.529167px;white-space:pre;fill:#0e4646;fill-opacity:1;stroke-width:1.5751"
           d="m 66.270205,33.057676 c -4.289687,0 -7.779227,3.489542 -7.779227,7.779219 0,4.289695 3.48954,7.779221 7.779227,7.779221 3.445085,0 6.379275,-2.244701 7.401681,-5.356399 h -3.711843 c -0.622343,1.333586 -2.134001,2.245593 -3.689838,2.245593 -2.444917,0 -4.400923,-2.090153 -4.400923,-4.668415 0,-2.556017 1.956006,-4.667313 4.400923,-4.667313 1.53362,0 3.045469,0.84465 3.667813,2.200464 h 3.711842 c -1.022427,-3.089458 -3.93457,-5.31237 -7.379655,-5.31237 z"
           id="path139" />
        <path
           style="font-style:normal;font-variant:normal;font-weight:bold;font-stretch:normal;font-size:14.1111px;line-height:1.25;font-family:'Glacial Indifference';-inkscape-font-specification:'Glacial Indifference Bold';letter-spacing:0.529167px;white-space:pre;fill:#0e4646;fill-opacity:1;stroke-width:1.5751"
           d="m 50.833927,33.057676 c -3.24504,0 -4.934163,2.489872 -5.000855,5.401531 h 3.133927 c 0.06667,-1.578075 0.799866,-2.244492 1.888941,-2.244492 1.000188,0 1.711717,0.666666 1.711717,1.755744 0,1.022415 -0.933281,2.022679 -1.533388,2.778374 l -5.97945,7.644926 h 10.935176 v -3.022746 h -4.578157 l 1.600533,-2.00012 c 1.311361,-1.644744 2.733252,-3.111121 2.733252,-5.400434 0,-2.933866 -1.977795,-4.912783 -4.911696,-4.912783 z"
           id="path140" />
        <path
           style="fill:#0e4646;fill-opacity:1;stroke:none;stroke-width:1.50811;stroke-linejoin:round"
           d="m 32.540827,43.176863 -3.427838,2.255501 a 7.7748172,7.7748044 0 0 0 6.219426,3.109707 7.7748172,7.7748044 0 0 0 3.140538,-0.662668 l -1.937378,-3.64579 c -0.387397,0.132005 -0.793889,0.199318 -1.20316,0.199233 -1.067437,3.28e-4 -2.083802,-0.456954 -2.791588,-1.255994 z"
           id="path141" />
        <path
           style="fill:#0e4646;fill-opacity:1;stroke:none;stroke-width:1.50811;stroke-linejoin:round"
           d="m 27.58841,40.079266 a 7.7748172,7.7748044 0 0 0 -0.03082,0.687986 7.7748172,7.7748044 0 0 0 0.94557,3.71624 L 31.929899,42.22909 C 31.718802,41.758011 31.607902,41.248224 31.60407,40.732028 Z"
           id="path142" />
        <path
           style="fill:#0e4646;fill-opacity:1;stroke:none;stroke-width:1.50811;stroke-linejoin:round"
           d="m 35.896018,33.013348 v 4.007945 c 1.819561,0.278555 3.163402,1.843555 3.163649,3.684313 -1.58e-4,1.188323 -0.566859,2.305368 -1.525685,3.007337 l 1.932977,3.638084 a 7.7748172,7.7748044 0 0 0 3.640289,-6.583775 7.7748172,7.7748044 0 0 0 -7.21123,-7.753904 z"
           id="path143" />
        <path
           style="fill:#6bba94;fill-opacity:1;stroke:none;stroke-width:1.50811;stroke-linejoin:round"
           d="m 34.768815,33.013348 a 7.7748172,7.7748044 0 0 0 -6.99988,5.956331 l 3.998045,0.649459 c 0.417956,-1.371043 1.584998,-2.381017 3.001835,-2.597845 z"
           id="path144" />
      </g>
    </g>
  </g>
</svg>
