<svg width="1224" height="765" viewBox="0 0 1224 765" fill="none" xmlns="http://www.w3.org/2000/svg">
<path d="M543.187 0.0263377C484.004 -1.25535 429.192 44.3927 421.507 103.967C418.218 129.467 424.041 154.614 436.165 176.204L403.795 216.687C413.132 220.885 422.098 225.866 430.595 231.576L454.725 201.413C461.695 208.723 469.573 215.162 478.137 220.563L454.212 250.47C461.619 257.491 468.421 265.125 474.543 273.291L506.401 233.476C512.294 235.264 518.313 236.728 524.55 237.532C588.096 245.728 649.918 198.01 658.115 134.464C666.311 70.9178 618.618 9.09503 555.072 0.899218C551.101 0.387101 547.132 0.111924 543.187 0.0263377ZM541.878 51.1367C544.095 51.1717 546.309 51.3396 548.527 51.6236C584.018 56.2018 611.958 92.7739 553.763 137.672C495.567 182.57 467.603 146.316 472.182 110.82H472.156C476.448 77.5478 508.629 50.6043 541.878 51.1367ZM184.464 490.85L152.606 530.691C146.723 528.908 140.708 527.464 134.483 526.661C70.9358 518.464 9.11466 566.157 0.917876 629.703C-7.27796 693.249 40.4133 755.072 103.96 763.268C167.506 771.465 229.329 723.746 237.525 660.2C240.816 634.686 234.979 609.536 222.841 587.937L255.212 547.48C245.903 543.295 236.963 538.332 228.489 532.642L204.359 562.805C197.392 555.492 189.508 549.062 180.947 543.655L204.872 513.749C197.435 506.706 190.607 499.046 184.464 490.85ZM121.288 576.873C123.505 576.913 125.719 577.071 127.937 577.36C163.428 581.938 191.369 618.51 133.174 663.408C74.9774 708.306 47.0134 672.052 51.5918 636.557H51.5661C55.8581 603.284 88.0394 576.341 121.288 576.873Z" fill="#4BBC91"/>
<path d="M1051.01 202.291C950.975 202.291 869.598 283.669 869.598 383.706C869.598 483.744 950.975 565.121 1051.01 565.121C1131.35 565.121 1199.78 512.773 1223.62 440.207H1137.06C1122.55 471.307 1087.3 492.576 1051.01 492.576C993.996 492.576 948.381 443.832 948.381 383.706C948.381 324.098 993.996 274.862 1051.01 274.862C1086.78 274.862 1122.03 294.56 1136.55 326.178H1223.11C1199.27 254.13 1131.35 202.291 1051.01 202.291Z" fill="#134F50"/>
<path d="M691.033 202.291C615.357 202.291 575.966 260.356 574.411 328.257H647.496C649.05 291.456 666.149 275.915 691.547 275.915C714.871 275.915 731.465 291.462 731.465 316.859C731.465 340.703 709.7 364.029 695.705 381.652L556.262 559.935H811.275V489.444H704.51L741.835 442.8C772.417 404.444 805.576 370.247 805.576 316.859C805.576 248.44 759.453 202.291 691.033 202.291Z" fill="#134F50"/>
<path d="M264.427 438.277L184.488 490.877C201.376 513.393 223.275 531.668 248.449 544.255C273.623 556.842 301.382 563.395 329.528 563.396C354.75 563.395 379.695 558.132 402.767 547.943L357.586 462.921C348.552 466 339.073 467.569 329.528 467.567C304.635 467.575 280.933 456.911 264.427 438.277Z" fill="#134F50"/>
<path d="M148.936 366.042C148.46 371.377 148.22 376.73 148.218 382.086C148.217 412.363 155.798 442.157 170.269 468.751L250.182 416.177C245.259 405.191 242.673 393.303 242.584 381.265L148.936 366.042Z" fill="#134F50"/>
<path d="M342.672 201.255V294.722C385.105 301.218 416.444 337.714 416.45 380.642C416.446 408.354 403.23 434.404 380.87 450.774L425.948 535.616C451.934 519.298 473.354 496.652 488.202 469.799C503.049 442.946 510.839 412.764 510.841 382.079C510.838 336.269 493.495 292.158 462.298 258.613C431.1 225.068 388.361 204.575 342.672 201.255Z" fill="#134F50"/>
<path d="M316.387 201.255C277.946 204.051 241.397 219.025 212.044 244.003C182.69 268.98 162.06 302.662 153.146 340.159L246.383 355.305C256.13 323.331 283.346 299.778 316.387 294.722V201.255Z" fill="#4BBC91"/>
</svg>
